HIERARCHY
ROOT SpineBase
{
  OFFSET 0.000000 0.000000 0.000000
  CHANNELS 6 Xposition Yposition Zposition Zrotation Xrotation Yrotation
  JOINT SpineMid
  {
    OFFSET 0.000000 28.832268 0.000000
    CHANNELS 3 Zrotation Xrotation Yrotation
    JOINT SpineShoulder
    {
      OFFSET 0.021584 21.464203 -0.713651
      CHANNELS 3 Zrotation Xrotation Yrotation
      JOINT Neck
      {
        OFFSET 0.005906 7.119514 -0.545044
        CHANNELS 3 Zrotation Xrotation Yrotation
        JOINT Head
        {
          OFFSET -1.018228 14.436606 -0.701921
          CHANNELS 3 Zrotation Xrotation Yrotation
          End Site
          {
            OFFSET 0 0 0
          }
        }
      }
      JOINT ShoulderLeft
      {
        OFFSET -16.452090 -3.540909 -0.419892
        CHANNELS 3 Zrotation Xrotation Yrotation
        JOINT ElbowLeft
        {
          OFFSET -2.734284 -26.897122 1.630609
          CHANNELS 3 Zrotation Xrotation Yrotation
          JOINT WristLeft
          {
            OFFSET -1.091348 -20.320349 -5.130307
            CHANNELS 3 Zrotation Xrotation Yrotation
            JOINT HandLeft
            {
              OFFSET 2.369399 -4.814677 -1.190573
              CHANNELS 3 Zrotation Xrotation Yrotation
              JOINT HandTipLeft
              {
                OFFSET 0.839760 -6.299361 -0.605060
                CHANNELS 3 Zrotation Xrotation Yrotation
                End Site
                {
                  OFFSET 0 0 0
                }
              }
              JOINT ThumbLeft
              {
                OFFSET -3.115441 0.854612 -0.884737
                CHANNELS 3 Zrotation Xrotation Yrotation
                End Site
                {
                  OFFSET 0 0 0
                }
              }
            }
          }
        }
      }
      JOINT ShoulderRight
      {
        OFFSET 16.290450 -2.740798 -3.611188
        CHANNELS 3 Zrotation Xrotation Yrotation
        JOINT ElbowRight
        {
          OFFSET 5.305924 -22.898349 -2.186660
          CHANNELS 3 Zrotation Xrotation Yrotation
          JOINT WristRight
          {
            OFFSET -0.560893 -19.463242 -9.473139
            CHANNELS 3 Zrotation Xrotation Yrotation
            JOINT HandRight
            {
              OFFSET -0.403329 -6.618442 -3.429458
              CHANNELS 3 Zrotation Xrotation Yrotation
              JOINT HandTipRight
              {
                OFFSET -0.099339 -6.261102 -1.203770
                CHANNELS 3 Zrotation Xrotation Yrotation
                End Site
                {
                  OFFSET 0 0 0
                }
              }
              JOINT ThumbRight
              {
                OFFSET 1.915254 0.958113 -4.372632
                CHANNELS 3 Zrotation Xrotation Yrotation
                End Site
                {
                  OFFSET 0 0 0
                }
              }
            }
          }
        }
      }
    }
  }
  JOINT HipLeft
  {
    OFFSET -7.519890 0.848468 -2.828636
    CHANNELS 3 Zrotation Xrotation Yrotation
    JOINT KneeLeft
    {
      OFFSET -4.059013 -26.767345 -1.338698
      CHANNELS 3 Zrotation Xrotation Yrotation
      JOINT AnkleLeft
      {
        OFFSET -2.529443 -33.549557 5.775024
        CHANNELS 3 Zrotation Xrotation Yrotation
        JOINT FootLeft
        {
          OFFSET -0.703061 -3.372152 -13.199406
          CHANNELS 3 Zrotation Xrotation Yrotation
          End Site
          {
            OFFSET 0 0 0
          }
        }
      }
    }
  }
  JOINT HipRight
  {
    OFFSET 7.356918 0.897731 -3.888774
    CHANNELS 3 Zrotation Xrotation Yrotation
    JOINT KneeRight
    {
      OFFSET 3.946213 -27.246559 5.834496
      CHANNELS 3 Zrotation Xrotation Yrotation
      JOINT AnkleRight
      {
        OFFSET 2.344740 -32.807052 6.151997
        CHANNELS 3 Zrotation Xrotation Yrotation
        JOINT FootRight
        {
          OFFSET 0.970897 -5.927788 -8.370228
          CHANNELS 3 Zrotation Xrotation Yrotation
          End Site
          {
            OFFSET 0 0 0
          }
        }
      }
    }
  }
}
MOTION
Frames: 10
Frame Time: 0.033333
8.961642 65.271917 355.235180 -0.000000 0.000000 4.076072 -0.000000 0.000000 -4.076072 -0.000000 0.000000 0.000000 -0.000000 0.000000 0.000000 0.000000 0.000000 0.000000 -0.000000 0.000000 0.000000 -0.000000 0.000000 0.000000 -0.000000 0.000000 0.000000 -0.000000 0.000000 0.000000 0.000000 0.000000 0.000000 0.000000 0.000000 0.000000 -0.000000 0.000000 0.000000 -0.000000 0.000000 0.000000 -0.000000 0.000000 0.000000 -0.000000 0.000000 0.000000 0.000000 0.000000 0.000000 0.000000 0.000000 0.000000 -0.000000 0.000000 -4.076072 -0.000000 0.000000 0.000000 -0.000000 0.000000 0.000000 0.000000 0.000000 0.000000 -0.000000 0.000000 -4.076072 -0.000000 0.000000 0.000000 -0.000000 0.000000 0.000000 0.000000 0.000000 0.000000
8.987988 65.275335 355.245948 0.196905 0.116714 3.660240 -0.203955 -0.103905 -3.660625 -0.000000 0.000000 0.000000 -1.316547 0.162839 -0.050703 0.000000 0.000000 0.000000 -0.901984 -0.048786 -0.050066 1.731684 0.506716 -0.188691 -5.351051 2.150052 2.741531 4.397937 -2.816532 -2.335967 0.000000 0.000000 0.000000 0.000000 0.000000 0.000000 0.459125 -0.854634 -0.238404 1.081596 -0.663631 -0.466856 -0.610537 -3.515358 0.592568 -0.897696 5.027873 0.193489 0.000000 0.000000 0.000000 0.000000 0.000000 0.000000 -0.203955 -0.103905 -3.660625 -0.000000 0.000000 0.000000 0.212421 0.087599 -0.847671 0.000000 0.000000 0.000000 -0.203955 -0.103905 -3.660625 -0.000000 0.000000 0.000000 -1.332786 9.544247 3.189341 0.000000 0.000000 0.000000
8.983015 65.283958 355.265408 0.372079 0.252310 3.322349 -0.386079 -0.230317 -3.323944 -0.000000 0.000000 0.000000 -2.391445 0.263249 -0.092375 0.000000 0.000000 0.000000 -1.590095 0.086122 -0.103822 3.156310 0.821502 -0.347619 -10.220553 3.679348 5.198877 7.323960 -4.942868 -4.125706 0.000000 0.000000 0.000000 0.000000 0.000000 0.000000 0.654323 -1.690569 -0.444628 2.142105 -1.284422 -0.833388 -1.410109 -6.526503 1.350828 -1.868968 10.064026 0.374938 0.000000 0.000000 0.000000 0.000000 0.000000 0.000000 -0.747433 -1.007715 -3.191205 0.317547 0.796290 -0.138850 0.381166 0.164297 -1.519221 0.000000 0.000000 0.000000 -0.386079 -0.230317 -3.323944 -0.000000 0.000000 0.000000 -2.517544 15.694155 5.444352 0.000000 0.000000 0.000000
8.946723 65.297787 355.293561 0.525489 0.406901 3.062591 0.183451 0.231714 -3.042824 0.053777 0.073076 0.034172 -3.974715 -0.415042 -0.229384 0.000000 0.000000 0.000000 -2.811982 -0.310980 -0.246219 4.271008 0.943028 -0.466356 -14.364258 4.567999 7.186744 9.798522 -6.587743 -5.472177 0.000000 0.000000 0.000000 0.000000 0.000000 0.000000 -0.154425 -3.230843 -0.680380 3.166645 -1.850600 -1.100038 -2.458321 -8.955212 2.253419 -0.929241 13.275168 -0.210201 0.000000 0.000000 0.000000 0.000000 0.000000 0.000000 -1.055919 -1.554598 -2.870306 0.449976 1.200348 -0.209261 0.505718 0.231642 -2.014534 0.000000 0.000000 0.000000 -0.546490 -0.378227 -3.066261 -0.000000 0.000000 0.000000 -3.405923 19.504282 6.956937 0.000000 0.000000 0.000000
8.879112 65.316821 355.330406 0.657093 0.580613 2.881268 0.218809 0.278820 -2.857974 0.063395 0.085772 0.042073 -4.741304 -0.672164 -0.298507 0.000000 0.000000 0.000000 -3.238526 -0.035468 -0.330779 5.073047 0.869670 -0.538301 -17.603594 4.846276 8.567890 11.380906 -7.475832 -6.358550 0.000000 0.000000 0.000000 0.000000 0.000000 0.000000 -0.627612 -4.269598 -0.862994 4.144472 -2.353826 -1.267716 -3.815752 -10.757396 3.289444 0.117090 16.332694 -1.004900 0.000000 0.000000 0.000000 0.000000 0.000000 0.000000 -1.323724 -2.127923 -2.630539 0.565212 1.608616 -0.280162 0.585707 0.290797 -2.333711 0.000000 0.000000 0.000000 -0.685478 -0.546811 -2.887868 0.854838 -0.115411 0.152805 -4.763051 21.774956 7.702485 0.000000 0.000000 0.000000
8.780181 65.341061 355.375944 0.766833 0.773586 2.778796 0.241696 0.310125 -2.753319 0.068689 0.092460 0.048237 -5.229407 -0.989567 -0.360436 0.000000 0.000000 0.000000 -3.403812 0.432885 -0.412638 5.559785 0.599253 -0.560795 -19.826910 4.558862 9.260213 12.037593 -7.526994 -6.795659 0.000000 0.000000 0.000000 0.000000 0.000000 0.000000 -1.295728 -5.292203 -1.038589 5.067645 -2.788697 -1.337111 -5.545684 -11.905754 4.465854 3.082781 18.851626 -2.856868 0.000000 0.000000 0.000000 0.000000 0.000000 0.000000 -1.553206 -2.726459 -2.472056 0.663502 2.021296 -0.351428 0.620860 0.342525 -2.476916 0.000000 0.000000 0.000000 -0.803500 -0.735429 -2.789129 1.017828 -0.164438 0.180414 -5.144315 22.662185 8.037889 0.000000 0.000000 0.000000
8.645364 65.370817 355.402595 0.911416 1.047754 2.709656 0.253267 0.333255 -2.682498 0.065220 0.089215 0.054827 -5.572172 -1.500824 -0.435581 0.000000 0.000000 0.000000 -3.311057 1.220881 -0.513603 5.638073 0.007427 -0.499474 -20.956945 2.652718 8.529891 10.873880 -4.723092 -6.186709 0.000000 0.000000 0.000000 0.000000 0.000000 0.000000 -2.459743 -6.830144 -1.329718 5.959027 -3.354389 -1.117162 -8.892078 -12.399952 6.524898 8.979149 21.264937 -6.645089 0.000000 0.000000 0.000000 0.000000 0.000000 0.000000 -1.914622 -3.525172 -2.333535 1.369251 3.396738 -0.452203 0.067932 -0.450552 -2.337087 0.000000 0.000000 0.000000 -1.710161 -0.501451 -2.834545 1.944466 -0.729316 0.313698 -3.864102 18.562351 5.813558 0.000000 0.000000 0.000000
8.467709 65.409752 355.466372 0.980835 1.304988 2.799089 0.252372 0.331867 -2.772437 0.060663 0.082177 0.057601 -5.546609 -2.043857 -0.487403 0.000000 0.000000 0.000000 -2.834944 2.218263 -0.605346 5.266562 -0.820052 -0.390493 -20.141897 1.578975 7.719672 8.145615 -3.060488 -5.506512 0.000000 0.000000 0.000000 0.000000 0.000000 0.000000 -3.784422 -8.005237 -1.562892 6.919158 -3.988631 -0.918837 -12.403785 -11.415197 8.661094 15.474631 18.555525 -10.549407 0.000000 0.000000 0.000000 0.000000 0.000000 0.000000 -2.102583 -4.233122 -2.367832 1.792044 4.066221 -0.516313 -0.334902 -0.622371 -2.123665 0.000000 0.000000 0.000000 -1.800694 -0.576880 -2.910298 2.067615 -1.003018 0.312154 -3.643770 16.985190 5.215506 0.000000 0.000000 0.000000
8.261205 65.449986 355.550796 0.964605 1.510911 3.008780 0.230767 0.291561 -2.984388 0.051819 0.062514 0.055564 -5.003360 -2.266425 -0.461290 0.000000 0.000000 0.000000 -2.029606 3.338320 -0.683037 4.662369 -1.638792 -0.306166 -19.301176 -0.114854 6.543427 6.297437 -2.229371 -4.739874 0.000000 0.000000 0.000000 0.000000 0.000000 0.000000 -4.867324 -8.717937 -1.714177 7.560265 -4.351948 -0.703990 -15.341450 -9.349220 10.437944 20.825444 14.130631 -13.297670 0.000000 0.000000 0.000000 0.000000 0.000000 0.000000 -2.110960 -4.779048 -2.536655 2.133598 4.640207 -0.559043 -0.783625 -0.833401 -1.802165 0.000000 0.000000 0.000000 -1.810231 -0.614735 -3.106374 2.220949 -1.217156 0.322058 -3.750255 15.967762 5.058264 0.000000 0.000000 0.000000
8.047941 65.499456 355.635628 0.928933 1.708982 3.247394 0.216978 0.264383 -3.225374 0.051762 0.054160 0.053660 -4.351965 -2.631553 -0.435710 0.000000 0.000000 0.000000 -1.285523 4.275265 -0.759333 4.220670 -2.357149 -0.265528 -18.523063 -2.224451 5.132200 5.637857 0.674302 -3.345494 0.000000 0.000000 0.000000 0.000000 0.000000 0.000000 -5.752129 -9.136476 -1.796364 8.032069 -3.967694 -0.586287 -17.185789 -8.522755 11.448123 25.719338 9.193113 -15.415353 0.000000 0.000000 0.000000 0.000000 0.000000 0.000000 -2.018656 -5.226061 -2.746411 2.377699 5.063856 -0.579071 -1.224003 -0.992858 -1.465546 0.000000 0.000000 0.000000 -1.801467 -0.681711 -3.335891 2.376856 -1.273588 0.344546 -4.083455 15.541489 5.255888 0.000000 0.000000 0.000000
